HIERARCHY
ROOT Hips
{
	OFFSET	0.00	0.00	0.00
	CHANNELS 6 Xposition Yposition Zposition Zrotation Xrotation Yrotation
	JOINT LeftUpLeg
	{
		OFFSET	 0.126116	-0.014019	-0.065224
		CHANNELS 3 Zrotation Xrotation Yrotation
		JOINT LeftLeg
		{
			OFFSET	 0.000000	 0.000000	 0.569914
			CHANNELS 3 Zrotation Xrotation Yrotation
			JOINT LeftFoot
			{
				OFFSET	 0.000000	 0.000000	 0.544423
				CHANNELS 3 Zrotation Xrotation Yrotation
				JOINT LeftToeBase
				{
					OFFSET	 0.000000	 0.000000	 0.207117
					CHANNELS 3 Zrotation Xrotation Yrotation
					End Site
					{
						OFFSET	 0.000000	 0.000000	 0.207117
					}
				}
			}
		}
	}
	JOINT RightUpLeg
	{
		OFFSET	-0.124023	-0.008373	-0.065224
		CHANNELS 3 Zrotation Xrotation Yrotation
		JOINT RightLeg
		{
			OFFSET	 0.000000	 0.000000	 0.570047
			CHANNELS 3 Zrotation Xrotation Yrotation
			JOINT RightFoot
			{
				OFFSET	 0.000000	 0.000000	 0.544354
				CHANNELS 3 Zrotation Xrotation Yrotation
				JOINT RightToeBase
				{
					OFFSET	 0.000000	 0.000000	 0.207540
					CHANNELS 3 Zrotation Xrotation Yrotation
					End Site
					{
						OFFSET	 0.000000	 0.000000	 0.207540
					}
				}
			}
		}
	}
	JOINT Spine
	{
		OFFSET	 0.000184	-0.007763	 0.117403
		CHANNELS 3 Zrotation Xrotation Yrotation
		JOINT Spine1
		{
			OFFSET	 0.000000	 0.000000	 0.137269
			CHANNELS 3 Zrotation Xrotation Yrotation
			JOINT Spine2
			{
				OFFSET	 0.000000	 0.000000	 0.156879
				CHANNELS 3 Zrotation Xrotation Yrotation
				JOINT LeftShoulder
				{
					OFFSET	 0.080501	-0.002496	 0.160144
					CHANNELS 3 Zrotation Xrotation Yrotation
					JOINT LeftArm
					{
						OFFSET	 0.000000	 0.000000	 0.164363
						CHANNELS 3 Zrotation Xrotation Yrotation
						JOINT LeftForeArm
						{
							OFFSET	 0.000000	 0.000000	 0.364576
							CHANNELS 3 Zrotation Xrotation Yrotation
							JOINT LeftHand
							{
								OFFSET	 0.000000	 0.000000	 0.360812
								CHANNELS 3 Zrotation Xrotation Yrotation
								JOINT LeftHandIndex1
								{
									OFFSET	 0.000000	 0.000000	 0.086006
									CHANNELS 3 Zrotation Xrotation Yrotation
									JOINT LeftHandIndex2
									{
										OFFSET	 0.000000	 0.000000	 0.047236
										CHANNELS 3 Zrotation Xrotation Yrotation
										JOINT LeftHandIndex3
										{
											OFFSET	-0.004284	-0.000551	 0.038166
											CHANNELS 3 Zrotation Xrotation Yrotation
											End Site
											{
												OFFSET	-0.004284	-0.000551	 0.038166
											}
										}
									}
								}
							}
						}
					}
				}
				JOINT Neck
				{
					OFFSET	 0.000000	 0.000000	 0.176489
					CHANNELS 3 Zrotation Xrotation Yrotation
					JOINT Head
					{
						OFFSET	 0.000000	-0.001747	 0.077940
						CHANNELS 3 Zrotation Xrotation Yrotation
						End Site
						{
							OFFSET	 0.000000	-0.001747	 0.077940
						}
					}
				}
				JOINT RightShoulder
				{
					OFFSET	-0.080363	 0.000306	 0.159706
					CHANNELS 3 Zrotation Xrotation Yrotation
					JOINT RightArm
					{
						OFFSET	 0.000000	 0.000000	 0.164196
						CHANNELS 3 Zrotation Xrotation Yrotation
						JOINT RightForeArm
						{
							OFFSET	 0.000000	 0.000000	 0.365611
							CHANNELS 3 Zrotation Xrotation Yrotation
							JOINT RightHand
							{
								OFFSET	 0.000000	 0.000000	 0.360648
								CHANNELS 3 Zrotation Xrotation Yrotation
								JOINT RightHandIndex1
								{
									OFFSET	 0.000000	 0.000000	 0.069977
									CHANNELS 3 Zrotation Xrotation Yrotation
									JOINT RightHandIndex2
									{
										OFFSET	 0.000000	 0.000000	 0.052305
										CHANNELS 3 Zrotation Xrotation Yrotation
										JOINT RightHandIndex3
										{
											OFFSET	 0.009002	-0.000782	 0.042196
											CHANNELS 3 Zrotation Xrotation Yrotation
											End Site
											{
												OFFSET	 0.009002	-0.000782	 0.042196
											}
										}
									}
								}
							}
						}
					}
				}
			}
		}
	}
}
MOTION
Frames:    13
Frame Time: 0.03333334
 0.234172	 2.446058	-1.340919	 12.342910	-2.132216	 0.318092	 6.719011	-3.175254	-178.824500	-2.295949	-36.077400	 1.428468	 6.912790	 89.596030	-5.639434	-2.376063	 30.445270	-0.043672	 1.443066	-28.669970	 179.412900	 23.365760	-74.170600	 26.847250	 167.694500	 89.703260	-160.447400	 2.379019	 29.587160	 0.026138	-2.181100	 4.909051	 1.015430	 0.887568	-1.002308	 1.147422	 2.349028	-3.597372	 0.228652	-91.801800	 77.966030	 178.933400	 35.814700	 63.928680	-47.160990	-9.071099	-4.156810	-28.796190	 3.650633	-2.099151	-5.368441	-3.812334	 37.924440	-2.927599	-2.450526	 36.184240	 0.754587	-1.378229	 35.397820	-2.634230	-0.309033	 4.026182	-1.731527	 0.967922	-11.501420	-1.400347	 89.794970	 78.860020	 179.553200	-41.881570	 71.332120	 44.151070	 1.603182	-7.513467	 25.327100	-13.202920	-3.213141	 9.584235	 6.437017	 35.671460	-0.771858	 2.830251	 35.756010	-7.813440	-2.350882	 35.473990	 5.254307
 0.252991	 2.382035	-1.345016	 12.650030	-1.743992	-0.547586	 6.008868	 1.976961	-177.449100	-3.062294	-31.751980	 0.945143	 18.609260	 89.829830	-18.002530	-2.375794	 30.493990	-0.044766	 1.982354	-32.635970	 179.739200	 13.896170	-65.443770	 16.924880	-175.104800	 88.916640	-177.238000	 2.377723	 29.843400	 0.031784	-2.358578	 4.840444	 1.984409	 0.775224	-1.166000	 1.090582	 2.442006	-3.782238	 0.241616	-91.773670	 78.573810	 178.792100	 35.084610	 62.261760	-48.677620	-8.678666	-4.481473	-31.214720	 3.808489	-2.102114	-5.367722	-3.812334	 37.924440	-2.927599	-2.450526	 36.184240	 0.754587	-1.378229	 35.397820	-2.634230	-0.359525	 4.174831	-2.375608	 1.171768	-11.929350	-1.062677	 89.783330	 78.255180	 179.463600	-41.659160	 71.498440	 42.921920	 1.896191	-7.685859	 26.811680	-12.785140	-3.200580	 9.592095	 6.437017	 35.671460	-0.771858	 2.830251	 35.756010	-7.813440	-2.350882	 35.473990	 5.254307
 0.270808	 2.314385	-1.347609	 12.872030	-1.122676	-0.906563	 6.464347	 8.757583	-177.024500	-3.519238	-23.675180	 1.198860	 6.793450	 88.464680	-5.553122	-2.365575	 32.234910	-0.084045	 2.355211	-34.940940	 179.696500	 9.044993	-54.319890	 11.149310	-150.270300	 89.469550	 158.446000	 2.386938	 27.858270	-0.011437	-2.400532	 4.534486	 2.431145	 0.829108	-1.337943	 1.076082	 2.560260	-3.901876	 0.255974	-91.758380	 78.848250	 178.754300	 34.547210	 60.911120	-49.998180	-8.630896	-4.504628	-32.714710	 3.575989	-2.115338	-5.365620	-3.812334	 37.924440	-2.927599	-2.450526	 36.184240	 0.754587	-1.378229	 35.397820	-2.634230	-0.319893	 4.361172	-2.841206	 1.276461	-12.249810	-0.983875	 89.777020	 77.984930	 179.451200	-41.514530	 71.773950	 42.277190	 2.071823	-7.700476	 27.101400	-12.670340	-3.198577	 9.593271	 6.437017	 35.671460	-0.771858	 2.830251	 35.756010	-7.813440	-2.350882	 35.473990	 5.254307
 0.287877	 2.247237	-1.350779	 13.156190	-0.756397	-1.205206	 8.256824	 17.839530	-176.734900	-4.084524	-11.621190	 1.560571	 3.438939	 84.025910	 0.367344	-2.342101	 35.473050	-0.160304	 3.021208	-35.824080	 179.765800	 5.565847	-44.377760	 7.288280	-153.013500	 89.525630	 160.869200	 2.383628	 28.619460	 0.004995	-2.377815	 4.173111	 2.704654	 0.997405	-1.500520	 1.145287	 2.780599	-3.950070	 0.279172	-91.752650	 78.943210	 178.733800	 34.310890	 60.319470	-50.949630	-8.674808	-4.504069	-33.047600	 3.517184	-2.112112	-5.366348	-3.812334	 37.924440	-2.927599	-2.450526	 36.184240	 0.754587	-1.378229	 35.397820	-2.634230	-0.169111	 4.388975	-3.159026	 1.442936	-12.272870	-0.855195	 89.774770	 77.891570	 179.443200	-41.314800	 72.167040	 42.050980	 2.012994	-7.571400	 25.973580	-12.977950	-3.208214	 9.587517	 6.437017	 35.671460	-0.771858	 2.830251	 35.756010	-7.813440	-2.350882	 35.473990	 5.254307
 0.301916	 2.178859	-1.353349	 13.766180	-0.878819	-1.287717	 8.330302	 21.293040	-177.597300	-3.533692	-11.608810	 1.651309	 4.218256	 83.932980	 0.022868	-2.302300	 39.623130	-0.265569	 3.203233	-35.459590	 179.677100	 3.194999	-38.296430	 4.905417	-172.747000	 89.111110	 179.572200	 2.370015	 31.249810	 0.063169	-2.555988	 4.292551	 2.528267	 1.055020	-1.539142	 1.156668	 2.982322	-3.921868	 0.298704	-91.757730	 78.843800	 178.692200	 34.939190	 60.374690	-52.226200	-8.625278	-4.499077	-32.214460	 3.655031	-2.117818	-5.365014	-3.812334	 37.924440	-2.927599	-2.450526	 36.184240	 0.754587	-1.378229	 35.397820	-2.634230	-0.110775	 4.234091	-3.241619	 1.620073	-12.005060	-0.531440	 89.775860	 77.984440	 179.325300	-40.739190	 72.710660	 41.605340	 1.886475	-7.346129	 24.087290	-13.541850	-3.226292	 9.575928	 6.437017	 35.671460	-0.771858	 2.830251	 35.756010	-7.813440	-2.350882	 35.473990	 5.254307
 0.316856	 2.097997	-1.356029	 14.386090	-1.047835	-1.204324	 8.659057	 25.190490	-179.194100	-2.308520	-11.579200	 1.850000	 5.397243	 81.737700	-0.060222	-2.236110	 44.649040	-0.408131	 3.026542	-34.137300	 179.229900	 3.334745	-37.799830	 4.853224	 148.221700	 89.773580	-141.429700	 2.372386	 30.836300	 0.053871	-2.696153	 4.050750	 2.181418	 1.148594	-1.437435	 1.053985	 3.154811	-3.754275	 0.311410	-91.763010	 78.745690	 178.634600	 36.156150	 61.178840	-53.034130	-8.503202	-4.426747	-30.012910	 3.941707	-2.110811	-5.365915	-3.812334	 37.924440	-2.927599	-2.450526	 36.184240	 0.754587	-1.378229	 35.397820	-2.634230	-0.084744	 4.177151	-3.260372	 1.747350	-11.593020	 0.052584	 89.778790	 78.089200	 179.316500	-39.198290	 73.399420	 39.833700	 1.791404	-7.045770	 21.994900	-14.165010	-3.250950	 9.559216	 6.437017	 35.671460	-0.771858	 2.830251	 35.756010	-7.813440	-2.350882	 35.473990	 5.254307
 0.332547	 2.004509	-1.358443	 15.145150	-1.473818	-0.907011	 9.462285	 29.050220	 178.410800	-1.128424	-11.549030	 2.032083	 5.662944	 75.690240	 1.006703	-2.145039	 49.628740	-0.572146	 2.196340	-32.095440	 178.137600	 6.434114	-41.276230	 6.960507	 7.436910	 87.001270	 0.728633	 2.388201	 27.550950	-0.018026	-2.806504	 3.323109	 1.630438	 1.334381	-1.237825	 0.843574	 3.397627	-3.372041	 0.324141	-91.770140	 78.621830	 178.554000	 37.561240	 62.828200	-52.471510	-8.374759	-4.296221	-27.053100	 4.337867	-2.112546	-5.364974	-3.812334	 37.924440	-2.927599	-2.450526	 36.184240	 0.754587	-1.378229	 35.397820	-2.634230	 0.010510	 4.440542	-3.197889	 1.919399	-11.081260	 0.761513	 89.782690	 78.225080	 179.363400	-36.562210	 73.966800	 36.382370	 1.606672	-6.664431	 19.931590	-14.689660	-3.280118	 9.538510	 6.437017	 35.671460	-0.771858	 2.830251	 35.756010	-7.813440	-2.350882	 35.473990	 5.254307
 0.346533	 1.908334	-1.354139	 16.026230	-2.221554	-1.136488	 7.829522	 25.248990	 177.133000	-0.938313	-24.899430	 2.006338	 4.034767	 67.860680	 0.197563	-2.131965	 50.227090	-0.593822	 1.496375	-29.692150	 177.618900	 7.106446	-45.521590	 7.691709	 6.181092	 84.371270	 1.364334	 2.401178	 23.390950	-0.104888	-2.797709	 2.913544	 1.568141	 1.590640	-1.027478	 0.831257	 3.717250	-2.931353	 0.340456	-91.771800	 78.594330	 178.516900	 38.306260	 65.360830	-50.241390	-8.475402	-4.239526	-24.066030	 5.028915	-2.146902	-5.355832	-3.812334	 37.924440	-2.927599	-2.450526	 36.184240	 0.754587	-1.378229	 35.397820	-2.634230	 0.199858	 4.459215	-3.224194	 2.125145	-10.157610	 1.185232	 89.783620	 78.260610	 179.381000	-34.359900	 74.173320	 33.560640	 1.335225	-6.269158	 18.145910	-15.061370	-3.316822	 9.512434	 6.437017	 35.671460	-0.771858	 2.830251	 35.756010	-7.813440	-2.350882	 35.473990	 5.254307
 0.355171	 1.828371	-1.346381	 17.184400	-2.914394	-0.738709	 7.568936	 15.566410	 174.288900	-0.986680	-45.950620	 1.368810	 2.247645	 59.434220	 0.576584	-2.261705	 42.898800	-0.356269	 0.660503	-25.416400	 176.563200	 7.701061	-46.662250	 7.702126	 6.223771	 85.589580	 1.069960	 2.407314	 18.916980	-0.194512	-3.016433	 3.060152	 1.011906	 1.648073	-0.913565	 0.739635	 3.890195	-2.655432	 0.347002	-91.785650	 78.380740	 178.513600	 37.148040	 67.819240	-46.589990	-9.070998	-4.196630	-21.786430	 5.689102	-2.179456	-5.345540	-3.812334	 37.924440	-2.927599	-2.450526	 36.184240	 0.754587	-1.378229	 35.397820	-2.634230	 0.197563	 3.900098	-3.133941	 2.218632	-8.977040	 1.195025	 89.790510	 78.467160	 179.260000	-33.815150	 73.950160	 33.042850	 0.983553	-6.154029	 17.507320	-15.294880	-3.327781	 9.503665	 6.437017	 35.671460	-0.771858	 2.830251	 35.756010	-7.813440	-2.350882	 35.473990	 5.254307
 0.363969	 1.751172	-1.338706	 18.534250	-3.550481	 2.234981	 6.673160	 5.678302	 170.018000	-2.248891	-63.315580	-1.746427	-0.010850	 55.535430	 1.290462	-2.329847	 36.888420	-0.195149	-0.381279	-19.482960	 173.104000	 8.372252	-44.357900	 6.800611	 6.092914	 86.606560	 1.012384	 2.407606	 16.794430	-0.236060	-3.501703	 3.567569	-2.202525	 1.761966	-0.858943	 0.091265	 3.941277	-2.646069	 0.351243	-91.848630	 77.239740	 178.646700	 35.737620	 69.617880	-43.303650	-10.198660	-3.903932	-20.240580	 5.480912	-2.209167	-5.339032	-3.812334	 37.924440	-2.927599	-2.450526	 36.184240	 0.754587	-1.378229	 35.397820	-2.634230	 0.114523	 3.302978	-1.974851	 2.011207	-8.440118	 0.853119	 89.833980	 79.590940	 179.174700	-34.446340	 73.282240	 34.287260	 0.956919	-6.264425	 18.193390	-15.005800	-3.310765	 9.517644	 6.437017	 35.671460	-0.771858	 2.830251	 35.756010	-7.813440	-2.350882	 35.473990	 5.254307
 0.372568	 1.684000	-1.333541	 18.982240	-3.738611	 3.338873	 4.509609	-3.039025	 169.309100	-0.036245	-73.174120	-1.582487	 0.877577	 61.613230	 0.344812	-2.302259	 39.626290	-0.265654	-0.546566	-15.272110	 171.714100	 8.277929	-42.731320	 6.086209	 5.627622	 88.170510	 1.256535	 2.407663	 17.080150	-0.230497	-3.371760	 3.706861	-3.252927	 2.079697	-0.781039	-0.074513	 3.928412	-2.724308	 0.352760	-91.857110	 76.821290	 178.839400	 34.194110	 70.522810	-40.208180	-10.620830	-3.782433	-19.507550	 5.424185	-2.228376	-5.334414	-3.812334	 37.924440	-2.927599	-2.450526	 36.184240	 0.754587	-1.378229	 35.397820	-2.634230	 0.116110	 3.397085	-1.451299	 1.711486	-8.683879	 0.358296	 89.830540	 80.010260	 179.419500	-35.566470	 72.231350	 36.612510	 0.876662	-6.469452	 19.297640	-14.661310	-3.294940	 9.529943	 6.437017	 35.671460	-0.771858	 2.830251	 35.756010	-7.813440	-2.350882	 35.473990	 5.254307
 0.381720	 1.621137	-1.331574	 18.618230	-3.902655	 3.879975	 2.493016	-10.209170	 169.921800	 3.054373	-76.194250	 0.183360	 1.275177	 69.730610	-0.028846	-2.273669	 42.005820	-0.330774	-0.383248	-12.019690	 170.939500	 7.713013	-42.530740	 5.528260	-169.187000	 89.937450	 175.631200	 2.407657	 17.868380	-0.215103	-2.766018	 4.019561	-3.649450	 2.670559	-0.628212	-0.012875	 3.937421	-2.707759	 0.353005	-91.839370	 76.567550	 179.203000	 32.837180	 71.007670	-37.133730	-10.421640	-3.841522	-19.521230	 5.590951	-2.226693	-5.333920	-3.812334	 37.924440	-2.927599	-2.450526	 36.184240	 0.754587	-1.378229	 35.397820	-2.634230	 0.246639	 3.291849	-1.159771	 1.322253	-8.506870	-0.093168	 89.795490	 80.258090	 179.860700	-36.720660	 70.762830	 39.583500	 0.722707	-6.603381	 20.274480	-14.264810	-3.279292	 9.541626	 6.437017	 35.671460	-0.771858	 2.830251	 35.756010	-7.813440	-2.350882	 35.473990	 5.254307
 0.393336	 1.558147	-1.334499	 18.133300	-3.784769	 5.269434	 1.112807	-16.415460	 170.151400	-0.814961	-74.876460	-4.202879	 0.201338	 78.867360	-0.710610	-2.244034	 44.128450	-0.392426	-0.417521	-9.149674	 169.675300	 6.948412	-43.101140	 4.724140	-174.894000	 87.875240	-179.521100	 2.407293	 18.951520	-0.193829	-2.237809	 4.330978	-5.195416	 3.366824	-0.401981	-0.042366	 4.018085	-2.551103	 0.354785	-91.821950	 75.754680	 179.578700	 31.708150	 71.319490	-34.038910	-10.607360	-3.793000	-20.435600	 5.095102	-2.205592	-5.341989	-3.812334	 37.924440	-2.927599	-2.450526	 36.184240	 0.754587	-1.378229	 35.397820	-2.634230	 0.454279	 3.192116	-0.450967	 0.935079	-8.141527	-0.140367	 89.735020	 81.065540	-179.660400	-37.603500	 68.945640	 42.695730	 0.627278	-6.754710	 21.570700	-13.729700	-3.258915	 9.556602	 6.437017	 35.671460	-0.771858	 2.830251	 35.756010	-7.813440	-2.350882	 35.473990	 5.254307
